<?xml version="1.0" encoding="utf-8" standalone="no"?>
<!DOCTYPE svg PUBLIC "-//W3C//DTD SVG 1.1//EN"
  "http://www.w3.org/Graphics/SVG/1.1/DTD/svg11.dtd">
<!-- Created with matplotlib (https://matplotlib.org/) -->
<svg height="576pt" version="1.1" viewBox="0 0 1152 576" width="1152pt" xmlns="http://www.w3.org/2000/svg" xmlns:xlink="http://www.w3.org/1999/xlink">
 <defs>
  <style type="text/css">
*{stroke-linecap:butt;stroke-linejoin:round;}
  </style>
 </defs>
 <g id="figure_1">
  <g id="patch_1">
   <path d="M 0 576 
L 1152 576 
L 1152 0 
L 0 0 
z
" style="fill:#ffffff;"/>
  </g>
  <g id="axes_1">
   <g id="patch_2">
    <path d="M 144 512.64 
L 1036.8 512.64 
L 1036.8 69.12 
L 144 69.12 
z
" style="fill:#eaeaf2;"/>
   </g>
   <g id="matplotlib.axis_1">
    <g id="xtick_1">
     <g id="line2d_1">
      <path clip-path="url(#p0204b78bf4)" d="M 144 512.64 
L 144 69.12 
" style="fill:none;stroke:#ffffff;stroke-linecap:round;"/>
     </g>
     <g id="text_1">
      <!-- 0 -->
      <defs>
       <path d="M 31.78125 66.40625 
Q 24.171875 66.40625 20.328125 58.90625 
Q 16.5 51.421875 16.5 36.375 
Q 16.5 21.390625 20.328125 13.890625 
Q 24.171875 6.390625 31.78125 6.390625 
Q 39.453125 6.390625 43.28125 13.890625 
Q 47.125 21.390625 47.125 36.375 
Q 47.125 51.421875 43.28125 58.90625 
Q 39.453125 66.40625 31.78125 66.40625 
z
M 31.78125 74.21875 
Q 44.046875 74.21875 50.515625 64.515625 
Q 56.984375 54.828125 56.984375 36.375 
Q 56.984375 17.96875 50.515625 8.265625 
Q 44.046875 -1.421875 31.78125 -1.421875 
Q 19.53125 -1.421875 13.0625 8.265625 
Q 6.59375 17.96875 6.59375 36.375 
Q 6.59375 54.828125 13.0625 64.515625 
Q 19.53125 74.21875 31.78125 74.21875 
z
" id="DejaVuSans-48"/>
      </defs>
      <g style="fill:#262626;" transform="translate(138.750937 534.677422)scale(0.165 -0.165)">
       <use xlink:href="#DejaVuSans-48"/>
      </g>
     </g>
    </g>
    <g id="xtick_2">
     <g id="line2d_2">
      <path clip-path="url(#p0204b78bf4)" d="M 255.6 512.64 
L 255.6 69.12 
" style="fill:none;stroke:#ffffff;stroke-linecap:round;"/>
     </g>
     <g id="text_2">
      <!-- 250 -->
      <defs>
       <path d="M 19.1875 8.296875 
L 53.609375 8.296875 
L 53.609375 0 
L 7.328125 0 
L 7.328125 8.296875 
Q 12.9375 14.109375 22.625 23.890625 
Q 32.328125 33.6875 34.8125 36.53125 
Q 39.546875 41.84375 41.421875 45.53125 
Q 43.3125 49.21875 43.3125 52.78125 
Q 43.3125 58.59375 39.234375 62.25 
Q 35.15625 65.921875 28.609375 65.921875 
Q 23.96875 65.921875 18.8125 64.3125 
Q 13.671875 62.703125 7.8125 59.421875 
L 7.8125 69.390625 
Q 13.765625 71.78125 18.9375 73 
Q 24.125 74.21875 28.421875 74.21875 
Q 39.75 74.21875 46.484375 68.546875 
Q 53.21875 62.890625 53.21875 53.421875 
Q 53.21875 48.921875 51.53125 44.890625 
Q 49.859375 40.875 45.40625 35.40625 
Q 44.1875 33.984375 37.640625 27.21875 
Q 31.109375 20.453125 19.1875 8.296875 
z
" id="DejaVuSans-50"/>
       <path d="M 10.796875 72.90625 
L 49.515625 72.90625 
L 49.515625 64.59375 
L 19.828125 64.59375 
L 19.828125 46.734375 
Q 21.96875 47.46875 24.109375 47.828125 
Q 26.265625 48.1875 28.421875 48.1875 
Q 40.625 48.1875 47.75 41.5 
Q 54.890625 34.8125 54.890625 23.390625 
Q 54.890625 11.625 47.5625 5.09375 
Q 40.234375 -1.421875 26.90625 -1.421875 
Q 22.3125 -1.421875 17.546875 -0.640625 
Q 12.796875 0.140625 7.71875 1.703125 
L 7.71875 11.625 
Q 12.109375 9.234375 16.796875 8.0625 
Q 21.484375 6.890625 26.703125 6.890625 
Q 35.15625 6.890625 40.078125 11.328125 
Q 45.015625 15.765625 45.015625 23.390625 
Q 45.015625 31 40.078125 35.4375 
Q 35.15625 39.890625 26.703125 39.890625 
Q 22.75 39.890625 18.8125 39.015625 
Q 14.890625 38.140625 10.796875 36.28125 
z
" id="DejaVuSans-53"/>
      </defs>
      <g style="fill:#262626;" transform="translate(239.852812 534.677422)scale(0.165 -0.165)">
       <use xlink:href="#DejaVuSans-50"/>
       <use x="63.623047" xlink:href="#DejaVuSans-53"/>
       <use x="127.246094" xlink:href="#DejaVuSans-48"/>
      </g>
     </g>
    </g>
    <g id="xtick_3">
     <g id="line2d_3">
      <path clip-path="url(#p0204b78bf4)" d="M 367.2 512.64 
L 367.2 69.12 
" style="fill:none;stroke:#ffffff;stroke-linecap:round;"/>
     </g>
     <g id="text_3">
      <!-- 500 -->
      <g style="fill:#262626;" transform="translate(351.452812 534.677422)scale(0.165 -0.165)">
       <use xlink:href="#DejaVuSans-53"/>
       <use x="63.623047" xlink:href="#DejaVuSans-48"/>
       <use x="127.246094" xlink:href="#DejaVuSans-48"/>
      </g>
     </g>
    </g>
    <g id="xtick_4">
     <g id="line2d_4">
      <path clip-path="url(#p0204b78bf4)" d="M 478.8 512.64 
L 478.8 69.12 
" style="fill:none;stroke:#ffffff;stroke-linecap:round;"/>
     </g>
     <g id="text_4">
      <!-- 750 -->
      <defs>
       <path d="M 8.203125 72.90625 
L 55.078125 72.90625 
L 55.078125 68.703125 
L 28.609375 0 
L 18.3125 0 
L 43.21875 64.59375 
L 8.203125 64.59375 
z
" id="DejaVuSans-55"/>
      </defs>
      <g style="fill:#262626;" transform="translate(463.052812 534.677422)scale(0.165 -0.165)">
       <use xlink:href="#DejaVuSans-55"/>
       <use x="63.623047" xlink:href="#DejaVuSans-53"/>
       <use x="127.246094" xlink:href="#DejaVuSans-48"/>
      </g>
     </g>
    </g>
    <g id="xtick_5">
     <g id="line2d_5">
      <path clip-path="url(#p0204b78bf4)" d="M 590.4 512.64 
L 590.4 69.12 
" style="fill:none;stroke:#ffffff;stroke-linecap:round;"/>
     </g>
     <g id="text_5">
      <!-- 1000 -->
      <defs>
       <path d="M 12.40625 8.296875 
L 28.515625 8.296875 
L 28.515625 63.921875 
L 10.984375 60.40625 
L 10.984375 69.390625 
L 28.421875 72.90625 
L 38.28125 72.90625 
L 38.28125 8.296875 
L 54.390625 8.296875 
L 54.390625 0 
L 12.40625 0 
z
" id="DejaVuSans-49"/>
      </defs>
      <g style="fill:#262626;" transform="translate(569.40375 534.677422)scale(0.165 -0.165)">
       <use xlink:href="#DejaVuSans-49"/>
       <use x="63.623047" xlink:href="#DejaVuSans-48"/>
       <use x="127.246094" xlink:href="#DejaVuSans-48"/>
       <use x="190.869141" xlink:href="#DejaVuSans-48"/>
      </g>
     </g>
    </g>
    <g id="xtick_6">
     <g id="line2d_6">
      <path clip-path="url(#p0204b78bf4)" d="M 702 512.64 
L 702 69.12 
" style="fill:none;stroke:#ffffff;stroke-linecap:round;"/>
     </g>
     <g id="text_6">
      <!-- 1250 -->
      <g style="fill:#262626;" transform="translate(681.00375 534.677422)scale(0.165 -0.165)">
       <use xlink:href="#DejaVuSans-49"/>
       <use x="63.623047" xlink:href="#DejaVuSans-50"/>
       <use x="127.246094" xlink:href="#DejaVuSans-53"/>
       <use x="190.869141" xlink:href="#DejaVuSans-48"/>
      </g>
     </g>
    </g>
    <g id="xtick_7">
     <g id="line2d_7">
      <path clip-path="url(#p0204b78bf4)" d="M 813.6 512.64 
L 813.6 69.12 
" style="fill:none;stroke:#ffffff;stroke-linecap:round;"/>
     </g>
     <g id="text_7">
      <!-- 1500 -->
      <g style="fill:#262626;" transform="translate(792.60375 534.677422)scale(0.165 -0.165)">
       <use xlink:href="#DejaVuSans-49"/>
       <use x="63.623047" xlink:href="#DejaVuSans-53"/>
       <use x="127.246094" xlink:href="#DejaVuSans-48"/>
       <use x="190.869141" xlink:href="#DejaVuSans-48"/>
      </g>
     </g>
    </g>
    <g id="xtick_8">
     <g id="line2d_8">
      <path clip-path="url(#p0204b78bf4)" d="M 925.2 512.64 
L 925.2 69.12 
" style="fill:none;stroke:#ffffff;stroke-linecap:round;"/>
     </g>
     <g id="text_8">
      <!-- 1750 -->
      <g style="fill:#262626;" transform="translate(904.20375 534.677422)scale(0.165 -0.165)">
       <use xlink:href="#DejaVuSans-49"/>
       <use x="63.623047" xlink:href="#DejaVuSans-55"/>
       <use x="127.246094" xlink:href="#DejaVuSans-53"/>
       <use x="190.869141" xlink:href="#DejaVuSans-48"/>
      </g>
     </g>
    </g>
    <g id="xtick_9">
     <g id="line2d_9">
      <path clip-path="url(#p0204b78bf4)" d="M 1036.8 512.64 
L 1036.8 69.12 
" style="fill:none;stroke:#ffffff;stroke-linecap:round;"/>
     </g>
     <g id="text_9">
      <!-- 2000 -->
      <g style="fill:#262626;" transform="translate(1015.80375 534.677422)scale(0.165 -0.165)">
       <use xlink:href="#DejaVuSans-50"/>
       <use x="63.623047" xlink:href="#DejaVuSans-48"/>
       <use x="127.246094" xlink:href="#DejaVuSans-48"/>
       <use x="190.869141" xlink:href="#DejaVuSans-48"/>
      </g>
     </g>
    </g>
    <g id="text_10">
     <!-- Pods -->
     <defs>
      <path d="M 19.671875 64.796875 
L 19.671875 37.40625 
L 32.078125 37.40625 
Q 38.96875 37.40625 42.71875 40.96875 
Q 46.484375 44.53125 46.484375 51.125 
Q 46.484375 57.671875 42.71875 61.234375 
Q 38.96875 64.796875 32.078125 64.796875 
z
M 9.8125 72.90625 
L 32.078125 72.90625 
Q 44.34375 72.90625 50.609375 67.359375 
Q 56.890625 61.8125 56.890625 51.125 
Q 56.890625 40.328125 50.609375 34.8125 
Q 44.34375 29.296875 32.078125 29.296875 
L 19.671875 29.296875 
L 19.671875 0 
L 9.8125 0 
z
" id="DejaVuSans-80"/>
      <path d="M 30.609375 48.390625 
Q 23.390625 48.390625 19.1875 42.75 
Q 14.984375 37.109375 14.984375 27.296875 
Q 14.984375 17.484375 19.15625 11.84375 
Q 23.34375 6.203125 30.609375 6.203125 
Q 37.796875 6.203125 41.984375 11.859375 
Q 46.1875 17.53125 46.1875 27.296875 
Q 46.1875 37.015625 41.984375 42.703125 
Q 37.796875 48.390625 30.609375 48.390625 
z
M 30.609375 56 
Q 42.328125 56 49.015625 48.375 
Q 55.71875 40.765625 55.71875 27.296875 
Q 55.71875 13.875 49.015625 6.21875 
Q 42.328125 -1.421875 30.609375 -1.421875 
Q 18.84375 -1.421875 12.171875 6.21875 
Q 5.515625 13.875 5.515625 27.296875 
Q 5.515625 40.765625 12.171875 48.375 
Q 18.84375 56 30.609375 56 
z
" id="DejaVuSans-111"/>
      <path d="M 45.40625 46.390625 
L 45.40625 75.984375 
L 54.390625 75.984375 
L 54.390625 0 
L 45.40625 0 
L 45.40625 8.203125 
Q 42.578125 3.328125 38.25 0.953125 
Q 33.9375 -1.421875 27.875 -1.421875 
Q 17.96875 -1.421875 11.734375 6.484375 
Q 5.515625 14.40625 5.515625 27.296875 
Q 5.515625 40.1875 11.734375 48.09375 
Q 17.96875 56 27.875 56 
Q 33.9375 56 38.25 53.625 
Q 42.578125 51.265625 45.40625 46.390625 
z
M 14.796875 27.296875 
Q 14.796875 17.390625 18.875 11.75 
Q 22.953125 6.109375 30.078125 6.109375 
Q 37.203125 6.109375 41.296875 11.75 
Q 45.40625 17.390625 45.40625 27.296875 
Q 45.40625 37.203125 41.296875 42.84375 
Q 37.203125 48.484375 30.078125 48.484375 
Q 22.953125 48.484375 18.875 42.84375 
Q 14.796875 37.203125 14.796875 27.296875 
z
" id="DejaVuSans-100"/>
      <path d="M 44.28125 53.078125 
L 44.28125 44.578125 
Q 40.484375 46.53125 36.375 47.5 
Q 32.28125 48.484375 27.875 48.484375 
Q 21.1875 48.484375 17.84375 46.4375 
Q 14.5 44.390625 14.5 40.28125 
Q 14.5 37.15625 16.890625 35.375 
Q 19.28125 33.59375 26.515625 31.984375 
L 29.59375 31.296875 
Q 39.15625 29.25 43.1875 25.515625 
Q 47.21875 21.78125 47.21875 15.09375 
Q 47.21875 7.46875 41.1875 3.015625 
Q 35.15625 -1.421875 24.609375 -1.421875 
Q 20.21875 -1.421875 15.453125 -0.5625 
Q 10.6875 0.296875 5.421875 2 
L 5.421875 11.28125 
Q 10.40625 8.6875 15.234375 7.390625 
Q 20.0625 6.109375 24.8125 6.109375 
Q 31.15625 6.109375 34.5625 8.28125 
Q 37.984375 10.453125 37.984375 14.40625 
Q 37.984375 18.0625 35.515625 20.015625 
Q 33.0625 21.96875 24.703125 23.78125 
L 21.578125 24.515625 
Q 13.234375 26.265625 9.515625 29.90625 
Q 5.8125 33.546875 5.8125 39.890625 
Q 5.8125 47.609375 11.28125 51.796875 
Q 16.75 56 26.8125 56 
Q 31.78125 56 36.171875 55.265625 
Q 40.578125 54.546875 44.28125 53.078125 
z
" id="DejaVuSans-115"/>
     </defs>
     <g style="fill:#262626;" transform="translate(569.068594 555.786094)scale(0.18 -0.18)">
      <use xlink:href="#DejaVuSans-80"/>
      <use x="60.255859" xlink:href="#DejaVuSans-111"/>
      <use x="121.4375" xlink:href="#DejaVuSans-100"/>
      <use x="184.914062" xlink:href="#DejaVuSans-115"/>
     </g>
    </g>
   </g>
   <g id="matplotlib.axis_2">
    <g id="ytick_1">
     <g id="line2d_10">
      <path clip-path="url(#p0204b78bf4)" d="M 144 500.970246 
L 1036.8 500.970246 
" style="fill:none;stroke:#ffffff;stroke-linecap:round;"/>
     </g>
     <g id="text_11">
      <!-- 0 -->
      <g style="fill:#262626;" transform="translate(124.001875 507.238956)scale(0.165 -0.165)">
       <use xlink:href="#DejaVuSans-48"/>
      </g>
     </g>
    </g>
    <g id="ytick_2">
     <g id="line2d_11">
      <path clip-path="url(#p0204b78bf4)" d="M 144 420.795611 
L 1036.8 420.795611 
" style="fill:none;stroke:#ffffff;stroke-linecap:round;"/>
     </g>
     <g id="text_12">
      <!-- 500 -->
      <g style="fill:#262626;" transform="translate(103.005625 427.064322)scale(0.165 -0.165)">
       <use xlink:href="#DejaVuSans-53"/>
       <use x="63.623047" xlink:href="#DejaVuSans-48"/>
       <use x="127.246094" xlink:href="#DejaVuSans-48"/>
      </g>
     </g>
    </g>
    <g id="ytick_3">
     <g id="line2d_12">
      <path clip-path="url(#p0204b78bf4)" d="M 144 340.620976 
L 1036.8 340.620976 
" style="fill:none;stroke:#ffffff;stroke-linecap:round;"/>
     </g>
     <g id="text_13">
      <!-- 1000 -->
      <g style="fill:#262626;" transform="translate(92.5075 346.889687)scale(0.165 -0.165)">
       <use xlink:href="#DejaVuSans-49"/>
       <use x="63.623047" xlink:href="#DejaVuSans-48"/>
       <use x="127.246094" xlink:href="#DejaVuSans-48"/>
       <use x="190.869141" xlink:href="#DejaVuSans-48"/>
      </g>
     </g>
    </g>
    <g id="ytick_4">
     <g id="line2d_13">
      <path clip-path="url(#p0204b78bf4)" d="M 144 260.446341 
L 1036.8 260.446341 
" style="fill:none;stroke:#ffffff;stroke-linecap:round;"/>
     </g>
     <g id="text_14">
      <!-- 1500 -->
      <g style="fill:#262626;" transform="translate(92.5075 266.715052)scale(0.165 -0.165)">
       <use xlink:href="#DejaVuSans-49"/>
       <use x="63.623047" xlink:href="#DejaVuSans-53"/>
       <use x="127.246094" xlink:href="#DejaVuSans-48"/>
       <use x="190.869141" xlink:href="#DejaVuSans-48"/>
      </g>
     </g>
    </g>
    <g id="ytick_5">
     <g id="line2d_14">
      <path clip-path="url(#p0204b78bf4)" d="M 144 180.271706 
L 1036.8 180.271706 
" style="fill:none;stroke:#ffffff;stroke-linecap:round;"/>
     </g>
     <g id="text_15">
      <!-- 2000 -->
      <g style="fill:#262626;" transform="translate(92.5075 186.540417)scale(0.165 -0.165)">
       <use xlink:href="#DejaVuSans-50"/>
       <use x="63.623047" xlink:href="#DejaVuSans-48"/>
       <use x="127.246094" xlink:href="#DejaVuSans-48"/>
       <use x="190.869141" xlink:href="#DejaVuSans-48"/>
      </g>
     </g>
    </g>
    <g id="ytick_6">
     <g id="line2d_15">
      <path clip-path="url(#p0204b78bf4)" d="M 144 100.097072 
L 1036.8 100.097072 
" style="fill:none;stroke:#ffffff;stroke-linecap:round;"/>
     </g>
     <g id="text_16">
      <!-- 2500 -->
      <g style="fill:#262626;" transform="translate(92.5075 106.365783)scale(0.165 -0.165)">
       <use xlink:href="#DejaVuSans-50"/>
       <use x="63.623047" xlink:href="#DejaVuSans-53"/>
       <use x="127.246094" xlink:href="#DejaVuSans-48"/>
       <use x="190.869141" xlink:href="#DejaVuSans-48"/>
      </g>
     </g>
    </g>
    <g id="text_17">
     <!-- Memory Usage[MiB] -->
     <defs>
      <path d="M 9.8125 72.90625 
L 24.515625 72.90625 
L 43.109375 23.296875 
L 61.8125 72.90625 
L 76.515625 72.90625 
L 76.515625 0 
L 66.890625 0 
L 66.890625 64.015625 
L 48.09375 14.015625 
L 38.1875 14.015625 
L 19.390625 64.015625 
L 19.390625 0 
L 9.8125 0 
z
" id="DejaVuSans-77"/>
      <path d="M 56.203125 29.59375 
L 56.203125 25.203125 
L 14.890625 25.203125 
Q 15.484375 15.921875 20.484375 11.0625 
Q 25.484375 6.203125 34.421875 6.203125 
Q 39.59375 6.203125 44.453125 7.46875 
Q 49.3125 8.734375 54.109375 11.28125 
L 54.109375 2.78125 
Q 49.265625 0.734375 44.1875 -0.34375 
Q 39.109375 -1.421875 33.890625 -1.421875 
Q 20.796875 -1.421875 13.15625 6.1875 
Q 5.515625 13.8125 5.515625 26.8125 
Q 5.515625 40.234375 12.765625 48.109375 
Q 20.015625 56 32.328125 56 
Q 43.359375 56 49.78125 48.890625 
Q 56.203125 41.796875 56.203125 29.59375 
z
M 47.21875 32.234375 
Q 47.125 39.59375 43.09375 43.984375 
Q 39.0625 48.390625 32.421875 48.390625 
Q 24.90625 48.390625 20.390625 44.140625 
Q 15.875 39.890625 15.1875 32.171875 
z
" id="DejaVuSans-101"/>
      <path d="M 52 44.1875 
Q 55.375 50.25 60.0625 53.125 
Q 64.75 56 71.09375 56 
Q 79.640625 56 84.28125 50.015625 
Q 88.921875 44.046875 88.921875 33.015625 
L 88.921875 0 
L 79.890625 0 
L 79.890625 32.71875 
Q 79.890625 40.578125 77.09375 44.375 
Q 74.3125 48.1875 68.609375 48.1875 
Q 61.625 48.1875 57.5625 43.546875 
Q 53.515625 38.921875 53.515625 30.90625 
L 53.515625 0 
L 44.484375 0 
L 44.484375 32.71875 
Q 44.484375 40.625 41.703125 44.40625 
Q 38.921875 48.1875 33.109375 48.1875 
Q 26.21875 48.1875 22.15625 43.53125 
Q 18.109375 38.875 18.109375 30.90625 
L 18.109375 0 
L 9.078125 0 
L 9.078125 54.6875 
L 18.109375 54.6875 
L 18.109375 46.1875 
Q 21.1875 51.21875 25.484375 53.609375 
Q 29.78125 56 35.6875 56 
Q 41.65625 56 45.828125 52.96875 
Q 50 49.953125 52 44.1875 
z
" id="DejaVuSans-109"/>
      <path d="M 41.109375 46.296875 
Q 39.59375 47.171875 37.8125 47.578125 
Q 36.03125 48 33.890625 48 
Q 26.265625 48 22.1875 43.046875 
Q 18.109375 38.09375 18.109375 28.8125 
L 18.109375 0 
L 9.078125 0 
L 9.078125 54.6875 
L 18.109375 54.6875 
L 18.109375 46.1875 
Q 20.953125 51.171875 25.484375 53.578125 
Q 30.03125 56 36.53125 56 
Q 37.453125 56 38.578125 55.875 
Q 39.703125 55.765625 41.0625 55.515625 
z
" id="DejaVuSans-114"/>
      <path d="M 32.171875 -5.078125 
Q 28.375 -14.84375 24.75 -17.8125 
Q 21.140625 -20.796875 15.09375 -20.796875 
L 7.90625 -20.796875 
L 7.90625 -13.28125 
L 13.1875 -13.28125 
Q 16.890625 -13.28125 18.9375 -11.515625 
Q 21 -9.765625 23.484375 -3.21875 
L 25.09375 0.875 
L 2.984375 54.6875 
L 12.5 54.6875 
L 29.59375 11.921875 
L 46.6875 54.6875 
L 56.203125 54.6875 
z
" id="DejaVuSans-121"/>
      <path id="DejaVuSans-32"/>
      <path d="M 8.6875 72.90625 
L 18.609375 72.90625 
L 18.609375 28.609375 
Q 18.609375 16.890625 22.84375 11.734375 
Q 27.09375 6.59375 36.625 6.59375 
Q 46.09375 6.59375 50.34375 11.734375 
Q 54.59375 16.890625 54.59375 28.609375 
L 54.59375 72.90625 
L 64.5 72.90625 
L 64.5 27.390625 
Q 64.5 13.140625 57.4375 5.859375 
Q 50.390625 -1.421875 36.625 -1.421875 
Q 22.796875 -1.421875 15.734375 5.859375 
Q 8.6875 13.140625 8.6875 27.390625 
z
" id="DejaVuSans-85"/>
      <path d="M 34.28125 27.484375 
Q 23.390625 27.484375 19.1875 25 
Q 14.984375 22.515625 14.984375 16.5 
Q 14.984375 11.71875 18.140625 8.90625 
Q 21.296875 6.109375 26.703125 6.109375 
Q 34.1875 6.109375 38.703125 11.40625 
Q 43.21875 16.703125 43.21875 25.484375 
L 43.21875 27.484375 
z
M 52.203125 31.203125 
L 52.203125 0 
L 43.21875 0 
L 43.21875 8.296875 
Q 40.140625 3.328125 35.546875 0.953125 
Q 30.953125 -1.421875 24.3125 -1.421875 
Q 15.921875 -1.421875 10.953125 3.296875 
Q 6 8.015625 6 15.921875 
Q 6 25.140625 12.171875 29.828125 
Q 18.359375 34.515625 30.609375 34.515625 
L 43.21875 34.515625 
L 43.21875 35.40625 
Q 43.21875 41.609375 39.140625 45 
Q 35.0625 48.390625 27.6875 48.390625 
Q 23 48.390625 18.546875 47.265625 
Q 14.109375 46.140625 10.015625 43.890625 
L 10.015625 52.203125 
Q 14.9375 54.109375 19.578125 55.046875 
Q 24.21875 56 28.609375 56 
Q 40.484375 56 46.34375 49.84375 
Q 52.203125 43.703125 52.203125 31.203125 
z
" id="DejaVuSans-97"/>
      <path d="M 45.40625 27.984375 
Q 45.40625 37.75 41.375 43.109375 
Q 37.359375 48.484375 30.078125 48.484375 
Q 22.859375 48.484375 18.828125 43.109375 
Q 14.796875 37.75 14.796875 27.984375 
Q 14.796875 18.265625 18.828125 12.890625 
Q 22.859375 7.515625 30.078125 7.515625 
Q 37.359375 7.515625 41.375 12.890625 
Q 45.40625 18.265625 45.40625 27.984375 
z
M 54.390625 6.78125 
Q 54.390625 -7.171875 48.1875 -13.984375 
Q 42 -20.796875 29.203125 -20.796875 
Q 24.46875 -20.796875 20.265625 -20.09375 
Q 16.0625 -19.390625 12.109375 -17.921875 
L 12.109375 -9.1875 
Q 16.0625 -11.328125 19.921875 -12.34375 
Q 23.78125 -13.375 27.78125 -13.375 
Q 36.625 -13.375 41.015625 -8.765625 
Q 45.40625 -4.15625 45.40625 5.171875 
L 45.40625 9.625 
Q 42.625 4.78125 38.28125 2.390625 
Q 33.9375 0 27.875 0 
Q 17.828125 0 11.671875 7.65625 
Q 5.515625 15.328125 5.515625 27.984375 
Q 5.515625 40.671875 11.671875 48.328125 
Q 17.828125 56 27.875 56 
Q 33.9375 56 38.28125 53.609375 
Q 42.625 51.21875 45.40625 46.390625 
L 45.40625 54.6875 
L 54.390625 54.6875 
z
" id="DejaVuSans-103"/>
      <path d="M 8.59375 75.984375 
L 29.296875 75.984375 
L 29.296875 69 
L 17.578125 69 
L 17.578125 -6.203125 
L 29.296875 -6.203125 
L 29.296875 -13.1875 
L 8.59375 -13.1875 
z
" id="DejaVuSans-91"/>
      <path d="M 9.421875 54.6875 
L 18.40625 54.6875 
L 18.40625 0 
L 9.421875 0 
z
M 9.421875 75.984375 
L 18.40625 75.984375 
L 18.40625 64.59375 
L 9.421875 64.59375 
z
" id="DejaVuSans-105"/>
      <path d="M 19.671875 34.8125 
L 19.671875 8.109375 
L 35.5 8.109375 
Q 43.453125 8.109375 47.28125 11.40625 
Q 51.125 14.703125 51.125 21.484375 
Q 51.125 28.328125 47.28125 31.5625 
Q 43.453125 34.8125 35.5 34.8125 
z
M 19.671875 64.796875 
L 19.671875 42.828125 
L 34.28125 42.828125 
Q 41.5 42.828125 45.03125 45.53125 
Q 48.578125 48.25 48.578125 53.8125 
Q 48.578125 59.328125 45.03125 62.0625 
Q 41.5 64.796875 34.28125 64.796875 
z
M 9.8125 72.90625 
L 35.015625 72.90625 
Q 46.296875 72.90625 52.390625 68.21875 
Q 58.5 63.53125 58.5 54.890625 
Q 58.5 48.1875 55.375 44.234375 
Q 52.25 40.28125 46.1875 39.3125 
Q 53.46875 37.75 57.5 32.78125 
Q 61.53125 27.828125 61.53125 20.40625 
Q 61.53125 10.640625 54.890625 5.3125 
Q 48.25 0 35.984375 0 
L 9.8125 0 
z
" id="DejaVuSans-66"/>
      <path d="M 30.421875 75.984375 
L 30.421875 -13.1875 
L 9.71875 -13.1875 
L 9.71875 -6.203125 
L 21.390625 -6.203125 
L 21.390625 69 
L 9.71875 69 
L 9.71875 75.984375 
z
" id="DejaVuSans-93"/>
     </defs>
     <g style="fill:#262626;" transform="translate(84.764062 381.848906)rotate(-90)scale(0.18 -0.18)">
      <use xlink:href="#DejaVuSans-77"/>
      <use x="86.279297" xlink:href="#DejaVuSans-101"/>
      <use x="147.802734" xlink:href="#DejaVuSans-109"/>
      <use x="245.214844" xlink:href="#DejaVuSans-111"/>
      <use x="306.396484" xlink:href="#DejaVuSans-114"/>
      <use x="347.509766" xlink:href="#DejaVuSans-121"/>
      <use x="406.689453" xlink:href="#DejaVuSans-32"/>
      <use x="438.476562" xlink:href="#DejaVuSans-85"/>
      <use x="511.669922" xlink:href="#DejaVuSans-115"/>
      <use x="563.769531" xlink:href="#DejaVuSans-97"/>
      <use x="625.048828" xlink:href="#DejaVuSans-103"/>
      <use x="688.525391" xlink:href="#DejaVuSans-101"/>
      <use x="750.048828" xlink:href="#DejaVuSans-91"/>
      <use x="789.0625" xlink:href="#DejaVuSans-77"/>
      <use x="875.341797" xlink:href="#DejaVuSans-105"/>
      <use x="903.125" xlink:href="#DejaVuSans-66"/>
      <use x="971.728516" xlink:href="#DejaVuSans-93"/>
     </g>
    </g>
   </g>
   <g id="line2d_16">
    <path clip-path="url(#p0204b78bf4)" d="M 144 279.34459 
L 188.64 269.841361 
L 233.28 260.338131 
L 277.92 250.834902 
L 322.56 241.331672 
L 367.2 231.828443 
L 411.84 222.325213 
L 456.48 212.821984 
L 501.12 203.318754 
L 545.76 193.815525 
L 590.4 184.312295 
L 635.04 174.809066 
L 679.68 165.305836 
L 724.32 155.802607 
L 768.96 146.299377 
L 813.6 136.796148 
L 858.24 127.292918 
L 902.88 117.789689 
L 947.52 108.286459 
L 992.16 98.78323 
L 1036.8 89.28 
" style="fill:none;stroke:#4c72b0;stroke-linecap:round;stroke-width:3;"/>
   </g>
   <g id="line2d_17">
    <path clip-path="url(#p0204b78bf4)" d="M 144 489.187253 
L 188.64 482.789151 
L 233.28 476.39105 
L 277.92 469.992948 
L 322.56 463.594846 
L 367.2 457.196745 
L 411.84 450.798643 
L 456.48 444.400542 
L 501.12 438.00244 
L 545.76 431.604338 
L 590.4 425.206237 
L 635.04 418.808135 
L 679.68 412.410033 
L 724.32 406.011932 
L 768.96 399.61383 
L 813.6 393.215728 
L 858.24 386.817627 
L 902.88 380.419525 
L 947.52 374.021423 
L 992.16 367.623322 
L 1036.8 361.22522 
" style="fill:none;stroke:#dd8452;stroke-linecap:round;stroke-width:3;"/>
   </g>
   <g id="line2d_18">
    <path clip-path="url(#p0204b78bf4)" d="M 144 492.48 
L 188.64 492.467749 
L 233.28 492.455497 
L 277.92 492.443246 
L 322.56 492.430994 
L 367.2 492.418743 
L 411.84 492.406492 
L 456.48 492.39424 
L 501.12 492.381989 
L 545.76 492.369738 
L 590.4 492.357486 
L 635.04 492.345235 
L 679.68 492.332983 
L 724.32 492.320732 
L 768.96 492.308481 
L 813.6 492.296229 
L 858.24 492.283978 
L 902.88 492.271726 
L 947.52 492.259475 
L 992.16 492.247224 
L 1036.8 492.234972 
" style="fill:none;stroke:#55a868;stroke-linecap:round;stroke-width:3;"/>
   </g>
   <g id="patch_3">
    <path d="M 144 512.64 
L 144 69.12 
" style="fill:none;stroke:#ffffff;stroke-linecap:square;stroke-linejoin:miter;stroke-width:1.25;"/>
   </g>
   <g id="patch_4">
    <path d="M 1036.8 512.64 
L 1036.8 69.12 
" style="fill:none;stroke:#ffffff;stroke-linecap:square;stroke-linejoin:miter;stroke-width:1.25;"/>
   </g>
   <g id="patch_5">
    <path d="M 144 512.64 
L 1036.8 512.64 
" style="fill:none;stroke:#ffffff;stroke-linecap:square;stroke-linejoin:miter;stroke-width:1.25;"/>
   </g>
   <g id="patch_6">
    <path d="M 144 69.12 
L 1036.8 69.12 
" style="fill:none;stroke:#ffffff;stroke-linecap:square;stroke-linejoin:miter;stroke-width:1.25;"/>
   </g>
   <g id="text_18">
    <!-- $y=0.593x+1382.143$ -->
    <defs>
     <path d="M 24.8125 -5.078125 
Q 18.5625 -15.578125 14.625 -18.1875 
Q 10.6875 -20.796875 4.59375 -20.796875 
L -2.484375 -20.796875 
L -0.984375 -13.28125 
L 4.203125 -13.28125 
Q 7.953125 -13.28125 10.59375 -11.234375 
Q 13.234375 -9.1875 16.5 -3.21875 
L 19.28125 2 
L 7.171875 54.6875 
L 16.703125 54.6875 
L 25.78125 12.796875 
L 50.875 54.6875 
L 60.296875 54.6875 
z
" id="DejaVuSans-Oblique-121"/>
     <path d="M 10.59375 45.40625 
L 73.1875 45.40625 
L 73.1875 37.203125 
L 10.59375 37.203125 
z
M 10.59375 25.484375 
L 73.1875 25.484375 
L 73.1875 17.1875 
L 10.59375 17.1875 
z
" id="DejaVuSans-61"/>
     <path d="M 10.6875 12.40625 
L 21 12.40625 
L 21 0 
L 10.6875 0 
z
" id="DejaVuSans-46"/>
     <path d="M 10.984375 1.515625 
L 10.984375 10.5 
Q 14.703125 8.734375 18.5 7.8125 
Q 22.3125 6.890625 25.984375 6.890625 
Q 35.75 6.890625 40.890625 13.453125 
Q 46.046875 20.015625 46.78125 33.40625 
Q 43.953125 29.203125 39.59375 26.953125 
Q 35.25 24.703125 29.984375 24.703125 
Q 19.046875 24.703125 12.671875 31.3125 
Q 6.296875 37.9375 6.296875 49.421875 
Q 6.296875 60.640625 12.9375 67.421875 
Q 19.578125 74.21875 30.609375 74.21875 
Q 43.265625 74.21875 49.921875 64.515625 
Q 56.59375 54.828125 56.59375 36.375 
Q 56.59375 19.140625 48.40625 8.859375 
Q 40.234375 -1.421875 26.421875 -1.421875 
Q 22.703125 -1.421875 18.890625 -0.6875 
Q 15.09375 0.046875 10.984375 1.515625 
z
M 30.609375 32.421875 
Q 37.25 32.421875 41.125 36.953125 
Q 45.015625 41.5 45.015625 49.421875 
Q 45.015625 57.28125 41.125 61.84375 
Q 37.25 66.40625 30.609375 66.40625 
Q 23.96875 66.40625 20.09375 61.84375 
Q 16.21875 57.28125 16.21875 49.421875 
Q 16.21875 41.5 20.09375 36.953125 
Q 23.96875 32.421875 30.609375 32.421875 
z
" id="DejaVuSans-57"/>
     <path d="M 40.578125 39.3125 
Q 47.65625 37.796875 51.625 33 
Q 55.609375 28.21875 55.609375 21.1875 
Q 55.609375 10.40625 48.1875 4.484375 
Q 40.765625 -1.421875 27.09375 -1.421875 
Q 22.515625 -1.421875 17.65625 -0.515625 
Q 12.796875 0.390625 7.625 2.203125 
L 7.625 11.71875 
Q 11.71875 9.328125 16.59375 8.109375 
Q 21.484375 6.890625 26.8125 6.890625 
Q 36.078125 6.890625 40.9375 10.546875 
Q 45.796875 14.203125 45.796875 21.1875 
Q 45.796875 27.640625 41.28125 31.265625 
Q 36.765625 34.90625 28.71875 34.90625 
L 20.21875 34.90625 
L 20.21875 43.015625 
L 29.109375 43.015625 
Q 36.375 43.015625 40.234375 45.921875 
Q 44.09375 48.828125 44.09375 54.296875 
Q 44.09375 59.90625 40.109375 62.90625 
Q 36.140625 65.921875 28.71875 65.921875 
Q 24.65625 65.921875 20.015625 65.03125 
Q 15.375 64.15625 9.8125 62.3125 
L 9.8125 71.09375 
Q 15.4375 72.65625 20.34375 73.4375 
Q 25.25 74.21875 29.59375 74.21875 
Q 40.828125 74.21875 47.359375 69.109375 
Q 53.90625 64.015625 53.90625 55.328125 
Q 53.90625 49.265625 50.4375 45.09375 
Q 46.96875 40.921875 40.578125 39.3125 
z
" id="DejaVuSans-51"/>
     <path d="M 60.015625 54.6875 
L 34.90625 27.875 
L 50.296875 0 
L 39.984375 0 
L 28.421875 21.6875 
L 8.296875 0 
L -2.59375 0 
L 24.3125 28.8125 
L 10.015625 54.6875 
L 20.3125 54.6875 
L 30.8125 34.90625 
L 49.125 54.6875 
z
" id="DejaVuSans-Oblique-120"/>
     <path d="M 46 62.703125 
L 46 35.5 
L 73.1875 35.5 
L 73.1875 27.203125 
L 46 27.203125 
L 46 0 
L 37.796875 0 
L 37.796875 27.203125 
L 10.59375 27.203125 
L 10.59375 35.5 
L 37.796875 35.5 
L 37.796875 62.703125 
z
" id="DejaVuSans-43"/>
     <path d="M 31.78125 34.625 
Q 24.75 34.625 20.71875 30.859375 
Q 16.703125 27.09375 16.703125 20.515625 
Q 16.703125 13.921875 20.71875 10.15625 
Q 24.75 6.390625 31.78125 6.390625 
Q 38.8125 6.390625 42.859375 10.171875 
Q 46.921875 13.96875 46.921875 20.515625 
Q 46.921875 27.09375 42.890625 30.859375 
Q 38.875 34.625 31.78125 34.625 
z
M 21.921875 38.8125 
Q 15.578125 40.375 12.03125 44.71875 
Q 8.5 49.078125 8.5 55.328125 
Q 8.5 64.0625 14.71875 69.140625 
Q 20.953125 74.21875 31.78125 74.21875 
Q 42.671875 74.21875 48.875 69.140625 
Q 55.078125 64.0625 55.078125 55.328125 
Q 55.078125 49.078125 51.53125 44.71875 
Q 48 40.375 41.703125 38.8125 
Q 48.828125 37.15625 52.796875 32.3125 
Q 56.78125 27.484375 56.78125 20.515625 
Q 56.78125 9.90625 50.3125 4.234375 
Q 43.84375 -1.421875 31.78125 -1.421875 
Q 19.734375 -1.421875 13.25 4.234375 
Q 6.78125 9.90625 6.78125 20.515625 
Q 6.78125 27.484375 10.78125 32.3125 
Q 14.796875 37.15625 21.921875 38.8125 
z
M 18.3125 54.390625 
Q 18.3125 48.734375 21.84375 45.5625 
Q 25.390625 42.390625 31.78125 42.390625 
Q 38.140625 42.390625 41.71875 45.5625 
Q 45.3125 48.734375 45.3125 54.390625 
Q 45.3125 60.0625 41.71875 63.234375 
Q 38.140625 66.40625 31.78125 66.40625 
Q 25.390625 66.40625 21.84375 63.234375 
Q 18.3125 60.0625 18.3125 54.390625 
z
" id="DejaVuSans-56"/>
     <path d="M 37.796875 64.3125 
L 12.890625 25.390625 
L 37.796875 25.390625 
z
M 35.203125 72.90625 
L 47.609375 72.90625 
L 47.609375 25.390625 
L 58.015625 25.390625 
L 58.015625 17.1875 
L 47.609375 17.1875 
L 47.609375 0 
L 37.796875 0 
L 37.796875 17.1875 
L 4.890625 17.1875 
L 4.890625 26.703125 
z
" id="DejaVuSans-52"/>
    </defs>
    <g style="fill:#262626;" transform="translate(813.6 136.796148)scale(0.18 -0.18)">
     <use transform="translate(0 0.78125)" xlink:href="#DejaVuSans-Oblique-121"/>
     <use transform="translate(78.662109 0.78125)" xlink:href="#DejaVuSans-61"/>
     <use transform="translate(181.933594 0.78125)" xlink:href="#DejaVuSans-48"/>
     <use transform="translate(245.556641 0.78125)" xlink:href="#DejaVuSans-46"/>
     <use transform="translate(277.34375 0.78125)" xlink:href="#DejaVuSans-53"/>
     <use transform="translate(340.888672 0.78125)" xlink:href="#DejaVuSans-57"/>
     <use transform="translate(404.511719 0.78125)" xlink:href="#DejaVuSans-51"/>
     <use transform="translate(468.134766 0.78125)" xlink:href="#DejaVuSans-Oblique-120"/>
     <use transform="translate(546.796875 0.78125)" xlink:href="#DejaVuSans-43"/>
     <use transform="translate(650.068359 0.78125)" xlink:href="#DejaVuSans-49"/>
     <use transform="translate(713.691406 0.78125)" xlink:href="#DejaVuSans-51"/>
     <use transform="translate(777.314453 0.78125)" xlink:href="#DejaVuSans-56"/>
     <use transform="translate(840.9375 0.78125)" xlink:href="#DejaVuSans-50"/>
     <use transform="translate(904.560547 0.78125)" xlink:href="#DejaVuSans-46"/>
     <use transform="translate(936.347656 0.78125)" xlink:href="#DejaVuSans-49"/>
     <use transform="translate(999.970703 0.78125)" xlink:href="#DejaVuSans-52"/>
     <use transform="translate(1063.59375 0.78125)" xlink:href="#DejaVuSans-51"/>
    </g>
   </g>
   <g id="text_19">
    <!-- $y=0.399x+73.483$ -->
    <g style="fill:#262626;" transform="translate(813.6 393.215728)scale(0.18 -0.18)">
     <use transform="translate(0 0.78125)" xlink:href="#DejaVuSans-Oblique-121"/>
     <use transform="translate(78.662109 0.78125)" xlink:href="#DejaVuSans-61"/>
     <use transform="translate(181.933594 0.78125)" xlink:href="#DejaVuSans-48"/>
     <use transform="translate(245.556641 0.78125)" xlink:href="#DejaVuSans-46"/>
     <use transform="translate(277.34375 0.78125)" xlink:href="#DejaVuSans-51"/>
     <use transform="translate(340.966797 0.78125)" xlink:href="#DejaVuSans-57"/>
     <use transform="translate(404.589844 0.78125)" xlink:href="#DejaVuSans-57"/>
     <use transform="translate(468.212891 0.78125)" xlink:href="#DejaVuSans-Oblique-120"/>
     <use transform="translate(546.875 0.78125)" xlink:href="#DejaVuSans-43"/>
     <use transform="translate(650.146484 0.78125)" xlink:href="#DejaVuSans-55"/>
     <use transform="translate(713.769531 0.78125)" xlink:href="#DejaVuSans-51"/>
     <use transform="translate(777.392578 0.78125)" xlink:href="#DejaVuSans-46"/>
     <use transform="translate(809.179688 0.78125)" xlink:href="#DejaVuSans-52"/>
     <use transform="translate(872.802734 0.78125)" xlink:href="#DejaVuSans-56"/>
     <use transform="translate(936.425781 0.78125)" xlink:href="#DejaVuSans-51"/>
    </g>
   </g>
   <g id="text_20">
    <!-- $y=0.001x+52.948$ -->
    <g style="fill:#262626;" transform="translate(813.6 492.296229)scale(0.18 -0.18)">
     <use transform="translate(0 0.78125)" xlink:href="#DejaVuSans-Oblique-121"/>
     <use transform="translate(78.662109 0.78125)" xlink:href="#DejaVuSans-61"/>
     <use transform="translate(181.933594 0.78125)" xlink:href="#DejaVuSans-48"/>
     <use transform="translate(245.556641 0.78125)" xlink:href="#DejaVuSans-46"/>
     <use transform="translate(277.34375 0.78125)" xlink:href="#DejaVuSans-48"/>
     <use transform="translate(340.966797 0.78125)" xlink:href="#DejaVuSans-48"/>
     <use transform="translate(404.589844 0.78125)" xlink:href="#DejaVuSans-49"/>
     <use transform="translate(468.212891 0.78125)" xlink:href="#DejaVuSans-Oblique-120"/>
     <use transform="translate(546.875 0.78125)" xlink:href="#DejaVuSans-43"/>
     <use transform="translate(650.146484 0.78125)" xlink:href="#DejaVuSans-53"/>
     <use transform="translate(713.769531 0.78125)" xlink:href="#DejaVuSans-50"/>
     <use transform="translate(777.392578 0.78125)" xlink:href="#DejaVuSans-46"/>
     <use transform="translate(809.179688 0.78125)" xlink:href="#DejaVuSans-57"/>
     <use transform="translate(872.802734 0.78125)" xlink:href="#DejaVuSans-52"/>
     <use transform="translate(936.425781 0.78125)" xlink:href="#DejaVuSans-56"/>
    </g>
   </g>
   <g id="text_21">
    <!-- ControlPlane Memory Usage per Pod (Predicated) [1.5.0] -->
    <defs>
     <path d="M 64.40625 67.28125 
L 64.40625 56.890625 
Q 59.421875 61.53125 53.78125 63.8125 
Q 48.140625 66.109375 41.796875 66.109375 
Q 29.296875 66.109375 22.65625 58.46875 
Q 16.015625 50.828125 16.015625 36.375 
Q 16.015625 21.96875 22.65625 14.328125 
Q 29.296875 6.6875 41.796875 6.6875 
Q 48.140625 6.6875 53.78125 8.984375 
Q 59.421875 11.28125 64.40625 15.921875 
L 64.40625 5.609375 
Q 59.234375 2.09375 53.4375 0.328125 
Q 47.65625 -1.421875 41.21875 -1.421875 
Q 24.65625 -1.421875 15.125 8.703125 
Q 5.609375 18.84375 5.609375 36.375 
Q 5.609375 53.953125 15.125 64.078125 
Q 24.65625 74.21875 41.21875 74.21875 
Q 47.75 74.21875 53.53125 72.484375 
Q 59.328125 70.75 64.40625 67.28125 
z
" id="DejaVuSans-67"/>
     <path d="M 54.890625 33.015625 
L 54.890625 0 
L 45.90625 0 
L 45.90625 32.71875 
Q 45.90625 40.484375 42.875 44.328125 
Q 39.84375 48.1875 33.796875 48.1875 
Q 26.515625 48.1875 22.3125 43.546875 
Q 18.109375 38.921875 18.109375 30.90625 
L 18.109375 0 
L 9.078125 0 
L 9.078125 54.6875 
L 18.109375 54.6875 
L 18.109375 46.1875 
Q 21.34375 51.125 25.703125 53.5625 
Q 30.078125 56 35.796875 56 
Q 45.21875 56 50.046875 50.171875 
Q 54.890625 44.34375 54.890625 33.015625 
z
" id="DejaVuSans-110"/>
     <path d="M 18.3125 70.21875 
L 18.3125 54.6875 
L 36.8125 54.6875 
L 36.8125 47.703125 
L 18.3125 47.703125 
L 18.3125 18.015625 
Q 18.3125 11.328125 20.140625 9.421875 
Q 21.96875 7.515625 27.59375 7.515625 
L 36.8125 7.515625 
L 36.8125 0 
L 27.59375 0 
Q 17.1875 0 13.234375 3.875 
Q 9.28125 7.765625 9.28125 18.015625 
L 9.28125 47.703125 
L 2.6875 47.703125 
L 2.6875 54.6875 
L 9.28125 54.6875 
L 9.28125 70.21875 
z
" id="DejaVuSans-116"/>
     <path d="M 9.421875 75.984375 
L 18.40625 75.984375 
L 18.40625 0 
L 9.421875 0 
z
" id="DejaVuSans-108"/>
     <path d="M 18.109375 8.203125 
L 18.109375 -20.796875 
L 9.078125 -20.796875 
L 9.078125 54.6875 
L 18.109375 54.6875 
L 18.109375 46.390625 
Q 20.953125 51.265625 25.265625 53.625 
Q 29.59375 56 35.59375 56 
Q 45.5625 56 51.78125 48.09375 
Q 58.015625 40.1875 58.015625 27.296875 
Q 58.015625 14.40625 51.78125 6.484375 
Q 45.5625 -1.421875 35.59375 -1.421875 
Q 29.59375 -1.421875 25.265625 0.953125 
Q 20.953125 3.328125 18.109375 8.203125 
z
M 48.6875 27.296875 
Q 48.6875 37.203125 44.609375 42.84375 
Q 40.53125 48.484375 33.40625 48.484375 
Q 26.265625 48.484375 22.1875 42.84375 
Q 18.109375 37.203125 18.109375 27.296875 
Q 18.109375 17.390625 22.1875 11.75 
Q 26.265625 6.109375 33.40625 6.109375 
Q 40.53125 6.109375 44.609375 11.75 
Q 48.6875 17.390625 48.6875 27.296875 
z
" id="DejaVuSans-112"/>
     <path d="M 31 75.875 
Q 24.46875 64.65625 21.28125 53.65625 
Q 18.109375 42.671875 18.109375 31.390625 
Q 18.109375 20.125 21.3125 9.0625 
Q 24.515625 -2 31 -13.1875 
L 23.1875 -13.1875 
Q 15.875 -1.703125 12.234375 9.375 
Q 8.59375 20.453125 8.59375 31.390625 
Q 8.59375 42.28125 12.203125 53.3125 
Q 15.828125 64.359375 23.1875 75.875 
z
" id="DejaVuSans-40"/>
     <path d="M 48.78125 52.59375 
L 48.78125 44.1875 
Q 44.96875 46.296875 41.140625 47.34375 
Q 37.3125 48.390625 33.40625 48.390625 
Q 24.65625 48.390625 19.8125 42.84375 
Q 14.984375 37.3125 14.984375 27.296875 
Q 14.984375 17.28125 19.8125 11.734375 
Q 24.65625 6.203125 33.40625 6.203125 
Q 37.3125 6.203125 41.140625 7.25 
Q 44.96875 8.296875 48.78125 10.40625 
L 48.78125 2.09375 
Q 45.015625 0.34375 40.984375 -0.53125 
Q 36.96875 -1.421875 32.421875 -1.421875 
Q 20.0625 -1.421875 12.78125 6.34375 
Q 5.515625 14.109375 5.515625 27.296875 
Q 5.515625 40.671875 12.859375 48.328125 
Q 20.21875 56 33.015625 56 
Q 37.15625 56 41.109375 55.140625 
Q 45.0625 54.296875 48.78125 52.59375 
z
" id="DejaVuSans-99"/>
     <path d="M 8.015625 75.875 
L 15.828125 75.875 
Q 23.140625 64.359375 26.78125 53.3125 
Q 30.421875 42.28125 30.421875 31.390625 
Q 30.421875 20.453125 26.78125 9.375 
Q 23.140625 -1.703125 15.828125 -13.1875 
L 8.015625 -13.1875 
Q 14.5 -2 17.703125 9.0625 
Q 20.90625 20.125 20.90625 31.390625 
Q 20.90625 42.671875 17.703125 53.65625 
Q 14.5 64.65625 8.015625 75.875 
z
" id="DejaVuSans-41"/>
    </defs>
    <g style="fill:#262626;" transform="translate(334.524375 63.12)scale(0.18 -0.18)">
     <use xlink:href="#DejaVuSans-67"/>
     <use x="69.824219" xlink:href="#DejaVuSans-111"/>
     <use x="131.005859" xlink:href="#DejaVuSans-110"/>
     <use x="194.384766" xlink:href="#DejaVuSans-116"/>
     <use x="233.59375" xlink:href="#DejaVuSans-114"/>
     <use x="274.675781" xlink:href="#DejaVuSans-111"/>
     <use x="335.857422" xlink:href="#DejaVuSans-108"/>
     <use x="363.640625" xlink:href="#DejaVuSans-80"/>
     <use x="423.943359" xlink:href="#DejaVuSans-108"/>
     <use x="451.726562" xlink:href="#DejaVuSans-97"/>
     <use x="513.005859" xlink:href="#DejaVuSans-110"/>
     <use x="576.384766" xlink:href="#DejaVuSans-101"/>
     <use x="637.908203" xlink:href="#DejaVuSans-32"/>
     <use x="669.695312" xlink:href="#DejaVuSans-77"/>
     <use x="755.974609" xlink:href="#DejaVuSans-101"/>
     <use x="817.498047" xlink:href="#DejaVuSans-109"/>
     <use x="914.910156" xlink:href="#DejaVuSans-111"/>
     <use x="976.091797" xlink:href="#DejaVuSans-114"/>
     <use x="1017.205078" xlink:href="#DejaVuSans-121"/>
     <use x="1076.384766" xlink:href="#DejaVuSans-32"/>
     <use x="1108.171875" xlink:href="#DejaVuSans-85"/>
     <use x="1181.365234" xlink:href="#DejaVuSans-115"/>
     <use x="1233.464844" xlink:href="#DejaVuSans-97"/>
     <use x="1294.744141" xlink:href="#DejaVuSans-103"/>
     <use x="1358.220703" xlink:href="#DejaVuSans-101"/>
     <use x="1419.744141" xlink:href="#DejaVuSans-32"/>
     <use x="1451.53125" xlink:href="#DejaVuSans-112"/>
     <use x="1515.007812" xlink:href="#DejaVuSans-101"/>
     <use x="1576.53125" xlink:href="#DejaVuSans-114"/>
     <use x="1617.644531" xlink:href="#DejaVuSans-32"/>
     <use x="1649.431641" xlink:href="#DejaVuSans-80"/>
     <use x="1709.6875" xlink:href="#DejaVuSans-111"/>
     <use x="1770.869141" xlink:href="#DejaVuSans-100"/>
     <use x="1834.345703" xlink:href="#DejaVuSans-32"/>
     <use x="1866.132812" xlink:href="#DejaVuSans-40"/>
     <use x="1905.146484" xlink:href="#DejaVuSans-80"/>
     <use x="1965.433594" xlink:href="#DejaVuSans-114"/>
     <use x="2006.515625" xlink:href="#DejaVuSans-101"/>
     <use x="2068.039062" xlink:href="#DejaVuSans-100"/>
     <use x="2131.515625" xlink:href="#DejaVuSans-105"/>
     <use x="2159.298828" xlink:href="#DejaVuSans-99"/>
     <use x="2214.279297" xlink:href="#DejaVuSans-97"/>
     <use x="2275.558594" xlink:href="#DejaVuSans-116"/>
     <use x="2314.767578" xlink:href="#DejaVuSans-101"/>
     <use x="2376.291016" xlink:href="#DejaVuSans-100"/>
     <use x="2439.767578" xlink:href="#DejaVuSans-41"/>
     <use x="2478.78125" xlink:href="#DejaVuSans-32"/>
     <use x="2510.568359" xlink:href="#DejaVuSans-91"/>
     <use x="2549.582031" xlink:href="#DejaVuSans-49"/>
     <use x="2613.205078" xlink:href="#DejaVuSans-46"/>
     <use x="2644.992188" xlink:href="#DejaVuSans-53"/>
     <use x="2708.615234" xlink:href="#DejaVuSans-46"/>
     <use x="2740.402344" xlink:href="#DejaVuSans-48"/>
     <use x="2804.025391" xlink:href="#DejaVuSans-93"/>
    </g>
   </g>
   <g id="legend_1">
    <g id="patch_7">
     <path d="M 155.55 180.647344 
L 537.31875 180.647344 
Q 540.61875 180.647344 540.61875 177.347344 
L 540.61875 80.67 
Q 540.61875 77.37 537.31875 77.37 
L 155.55 77.37 
Q 152.25 77.37 152.25 80.67 
L 152.25 177.347344 
Q 152.25 180.647344 155.55 180.647344 
z
" style="fill:#eaeaf2;opacity:0.8;stroke:#cccccc;stroke-linejoin:miter;"/>
    </g>
    <g id="text_22">
     <!-- pod,container -->
     <defs>
      <path d="M 11.71875 12.40625 
L 22.015625 12.40625 
L 22.015625 4 
L 14.015625 -11.625 
L 7.71875 -11.625 
L 11.71875 4 
z
" id="DejaVuSans-44"/>
     </defs>
     <g style="fill:#262626;" transform="translate(283.995469 97.647187)scale(0.18 -0.18)">
      <use xlink:href="#DejaVuSans-112"/>
      <use x="63.476562" xlink:href="#DejaVuSans-111"/>
      <use x="124.658203" xlink:href="#DejaVuSans-100"/>
      <use x="188.134766" xlink:href="#DejaVuSans-44"/>
      <use x="219.921875" xlink:href="#DejaVuSans-99"/>
      <use x="274.902344" xlink:href="#DejaVuSans-111"/>
      <use x="336.083984" xlink:href="#DejaVuSans-110"/>
      <use x="399.462891" xlink:href="#DejaVuSans-116"/>
      <use x="438.671875" xlink:href="#DejaVuSans-97"/>
      <use x="499.951172" xlink:href="#DejaVuSans-105"/>
      <use x="527.734375" xlink:href="#DejaVuSans-110"/>
      <use x="591.113281" xlink:href="#DejaVuSans-101"/>
      <use x="652.636719" xlink:href="#DejaVuSans-114"/>
     </g>
    </g>
    <g id="line2d_19">
     <path d="M 158.85 116.403047 
L 191.85 116.403047 
" style="fill:none;stroke:#4c72b0;stroke-linecap:round;stroke-width:3;"/>
    </g>
    <g id="line2d_20"/>
    <g id="text_23">
     <!-- (prometheus-6fd77b7876, prometheus) -->
     <defs>
      <path d="M 54.890625 33.015625 
L 54.890625 0 
L 45.90625 0 
L 45.90625 32.71875 
Q 45.90625 40.484375 42.875 44.328125 
Q 39.84375 48.1875 33.796875 48.1875 
Q 26.515625 48.1875 22.3125 43.546875 
Q 18.109375 38.921875 18.109375 30.90625 
L 18.109375 0 
L 9.078125 0 
L 9.078125 75.984375 
L 18.109375 75.984375 
L 18.109375 46.1875 
Q 21.34375 51.125 25.703125 53.5625 
Q 30.078125 56 35.796875 56 
Q 45.21875 56 50.046875 50.171875 
Q 54.890625 44.34375 54.890625 33.015625 
z
" id="DejaVuSans-104"/>
      <path d="M 8.5 21.578125 
L 8.5 54.6875 
L 17.484375 54.6875 
L 17.484375 21.921875 
Q 17.484375 14.15625 20.5 10.265625 
Q 23.53125 6.390625 29.59375 6.390625 
Q 36.859375 6.390625 41.078125 11.03125 
Q 45.3125 15.671875 45.3125 23.6875 
L 45.3125 54.6875 
L 54.296875 54.6875 
L 54.296875 0 
L 45.3125 0 
L 45.3125 8.40625 
Q 42.046875 3.421875 37.71875 1 
Q 33.40625 -1.421875 27.6875 -1.421875 
Q 18.265625 -1.421875 13.375 4.4375 
Q 8.5 10.296875 8.5 21.578125 
z
M 31.109375 56 
z
" id="DejaVuSans-117"/>
      <path d="M 4.890625 31.390625 
L 31.203125 31.390625 
L 31.203125 23.390625 
L 4.890625 23.390625 
z
" id="DejaVuSans-45"/>
      <path d="M 33.015625 40.375 
Q 26.375 40.375 22.484375 35.828125 
Q 18.609375 31.296875 18.609375 23.390625 
Q 18.609375 15.53125 22.484375 10.953125 
Q 26.375 6.390625 33.015625 6.390625 
Q 39.65625 6.390625 43.53125 10.953125 
Q 47.40625 15.53125 47.40625 23.390625 
Q 47.40625 31.296875 43.53125 35.828125 
Q 39.65625 40.375 33.015625 40.375 
z
M 52.59375 71.296875 
L 52.59375 62.3125 
Q 48.875 64.0625 45.09375 64.984375 
Q 41.3125 65.921875 37.59375 65.921875 
Q 27.828125 65.921875 22.671875 59.328125 
Q 17.53125 52.734375 16.796875 39.40625 
Q 19.671875 43.65625 24.015625 45.921875 
Q 28.375 48.1875 33.59375 48.1875 
Q 44.578125 48.1875 50.953125 41.515625 
Q 57.328125 34.859375 57.328125 23.390625 
Q 57.328125 12.15625 50.6875 5.359375 
Q 44.046875 -1.421875 33.015625 -1.421875 
Q 20.359375 -1.421875 13.671875 8.265625 
Q 6.984375 17.96875 6.984375 36.375 
Q 6.984375 53.65625 15.1875 63.9375 
Q 23.390625 74.21875 37.203125 74.21875 
Q 40.921875 74.21875 44.703125 73.484375 
Q 48.484375 72.75 52.59375 71.296875 
z
" id="DejaVuSans-54"/>
      <path d="M 37.109375 75.984375 
L 37.109375 68.5 
L 28.515625 68.5 
Q 23.6875 68.5 21.796875 66.546875 
Q 19.921875 64.59375 19.921875 59.515625 
L 19.921875 54.6875 
L 34.71875 54.6875 
L 34.71875 47.703125 
L 19.921875 47.703125 
L 19.921875 0 
L 10.890625 0 
L 10.890625 47.703125 
L 2.296875 47.703125 
L 2.296875 54.6875 
L 10.890625 54.6875 
L 10.890625 58.5 
Q 10.890625 67.625 15.140625 71.796875 
Q 19.390625 75.984375 28.609375 75.984375 
z
" id="DejaVuSans-102"/>
      <path d="M 48.6875 27.296875 
Q 48.6875 37.203125 44.609375 42.84375 
Q 40.53125 48.484375 33.40625 48.484375 
Q 26.265625 48.484375 22.1875 42.84375 
Q 18.109375 37.203125 18.109375 27.296875 
Q 18.109375 17.390625 22.1875 11.75 
Q 26.265625 6.109375 33.40625 6.109375 
Q 40.53125 6.109375 44.609375 11.75 
Q 48.6875 17.390625 48.6875 27.296875 
z
M 18.109375 46.390625 
Q 20.953125 51.265625 25.265625 53.625 
Q 29.59375 56 35.59375 56 
Q 45.5625 56 51.78125 48.09375 
Q 58.015625 40.1875 58.015625 27.296875 
Q 58.015625 14.40625 51.78125 6.484375 
Q 45.5625 -1.421875 35.59375 -1.421875 
Q 29.59375 -1.421875 25.265625 0.953125 
Q 20.953125 3.328125 18.109375 8.203125 
L 18.109375 0 
L 9.078125 0 
L 9.078125 75.984375 
L 18.109375 75.984375 
z
" id="DejaVuSans-98"/>
     </defs>
     <g style="fill:#262626;" transform="translate(205.05 122.178047)scale(0.165 -0.165)">
      <use xlink:href="#DejaVuSans-40"/>
      <use x="39.013672" xlink:href="#DejaVuSans-112"/>
      <use x="102.490234" xlink:href="#DejaVuSans-114"/>
      <use x="143.572266" xlink:href="#DejaVuSans-111"/>
      <use x="204.753906" xlink:href="#DejaVuSans-109"/>
      <use x="302.166016" xlink:href="#DejaVuSans-101"/>
      <use x="363.689453" xlink:href="#DejaVuSans-116"/>
      <use x="402.898438" xlink:href="#DejaVuSans-104"/>
      <use x="466.277344" xlink:href="#DejaVuSans-101"/>
      <use x="527.800781" xlink:href="#DejaVuSans-117"/>
      <use x="591.179688" xlink:href="#DejaVuSans-115"/>
      <use x="643.279297" xlink:href="#DejaVuSans-45"/>
      <use x="679.363281" xlink:href="#DejaVuSans-54"/>
      <use x="742.986328" xlink:href="#DejaVuSans-102"/>
      <use x="778.191406" xlink:href="#DejaVuSans-100"/>
      <use x="841.667969" xlink:href="#DejaVuSans-55"/>
      <use x="905.291016" xlink:href="#DejaVuSans-55"/>
      <use x="968.914062" xlink:href="#DejaVuSans-98"/>
      <use x="1032.390625" xlink:href="#DejaVuSans-55"/>
      <use x="1096.013672" xlink:href="#DejaVuSans-56"/>
      <use x="1159.636719" xlink:href="#DejaVuSans-55"/>
      <use x="1223.259766" xlink:href="#DejaVuSans-54"/>
      <use x="1286.882812" xlink:href="#DejaVuSans-44"/>
      <use x="1318.669922" xlink:href="#DejaVuSans-32"/>
      <use x="1350.457031" xlink:href="#DejaVuSans-112"/>
      <use x="1413.933594" xlink:href="#DejaVuSans-114"/>
      <use x="1455.015625" xlink:href="#DejaVuSans-111"/>
      <use x="1516.197266" xlink:href="#DejaVuSans-109"/>
      <use x="1613.609375" xlink:href="#DejaVuSans-101"/>
      <use x="1675.132812" xlink:href="#DejaVuSans-116"/>
      <use x="1714.341797" xlink:href="#DejaVuSans-104"/>
      <use x="1777.720703" xlink:href="#DejaVuSans-101"/>
      <use x="1839.244141" xlink:href="#DejaVuSans-117"/>
      <use x="1902.623047" xlink:href="#DejaVuSans-115"/>
      <use x="1954.722656" xlink:href="#DejaVuSans-41"/>
     </g>
    </g>
    <g id="line2d_21">
     <path d="M 158.85 140.621953 
L 191.85 140.621953 
" style="fill:none;stroke:#dd8452;stroke-linecap:round;stroke-width:3;"/>
    </g>
    <g id="line2d_22"/>
    <g id="text_24">
     <!-- (istiod-65c5b8df9d, discovery) -->
     <defs>
      <path d="M 2.984375 54.6875 
L 12.5 54.6875 
L 29.59375 8.796875 
L 46.6875 54.6875 
L 56.203125 54.6875 
L 35.6875 0 
L 23.484375 0 
z
" id="DejaVuSans-118"/>
     </defs>
     <g style="fill:#262626;" transform="translate(205.05 146.396953)scale(0.165 -0.165)">
      <use xlink:href="#DejaVuSans-40"/>
      <use x="39.013672" xlink:href="#DejaVuSans-105"/>
      <use x="66.796875" xlink:href="#DejaVuSans-115"/>
      <use x="118.896484" xlink:href="#DejaVuSans-116"/>
      <use x="158.105469" xlink:href="#DejaVuSans-105"/>
      <use x="185.888672" xlink:href="#DejaVuSans-111"/>
      <use x="247.070312" xlink:href="#DejaVuSans-100"/>
      <use x="310.546875" xlink:href="#DejaVuSans-45"/>
      <use x="346.630859" xlink:href="#DejaVuSans-54"/>
      <use x="410.253906" xlink:href="#DejaVuSans-53"/>
      <use x="473.876953" xlink:href="#DejaVuSans-99"/>
      <use x="528.857422" xlink:href="#DejaVuSans-53"/>
      <use x="592.480469" xlink:href="#DejaVuSans-98"/>
      <use x="655.957031" xlink:href="#DejaVuSans-56"/>
      <use x="719.580078" xlink:href="#DejaVuSans-100"/>
      <use x="783.056641" xlink:href="#DejaVuSans-102"/>
      <use x="818.261719" xlink:href="#DejaVuSans-57"/>
      <use x="881.884766" xlink:href="#DejaVuSans-100"/>
      <use x="945.361328" xlink:href="#DejaVuSans-44"/>
      <use x="977.148438" xlink:href="#DejaVuSans-32"/>
      <use x="1008.935547" xlink:href="#DejaVuSans-100"/>
      <use x="1072.412109" xlink:href="#DejaVuSans-105"/>
      <use x="1100.195312" xlink:href="#DejaVuSans-115"/>
      <use x="1152.294922" xlink:href="#DejaVuSans-99"/>
      <use x="1207.275391" xlink:href="#DejaVuSans-111"/>
      <use x="1268.457031" xlink:href="#DejaVuSans-118"/>
      <use x="1327.636719" xlink:href="#DejaVuSans-101"/>
      <use x="1389.160156" xlink:href="#DejaVuSans-114"/>
      <use x="1430.273438" xlink:href="#DejaVuSans-121"/>
      <use x="1489.453125" xlink:href="#DejaVuSans-41"/>
     </g>
    </g>
    <g id="line2d_23">
     <path d="M 158.85 164.840859 
L 191.85 164.840859 
" style="fill:none;stroke:#55a868;stroke-linecap:round;stroke-width:3;"/>
    </g>
    <g id="line2d_24"/>
    <g id="text_25">
     <!-- (prometheus-6fd77b7876, istio-proxy) -->
     <defs>
      <path d="M 54.890625 54.6875 
L 35.109375 28.078125 
L 55.90625 0 
L 45.3125 0 
L 29.390625 21.484375 
L 13.484375 0 
L 2.875 0 
L 24.125 28.609375 
L 4.6875 54.6875 
L 15.28125 54.6875 
L 29.78125 35.203125 
L 44.28125 54.6875 
z
" id="DejaVuSans-120"/>
     </defs>
     <g style="fill:#262626;" transform="translate(205.05 170.615859)scale(0.165 -0.165)">
      <use xlink:href="#DejaVuSans-40"/>
      <use x="39.013672" xlink:href="#DejaVuSans-112"/>
      <use x="102.490234" xlink:href="#DejaVuSans-114"/>
      <use x="143.572266" xlink:href="#DejaVuSans-111"/>
      <use x="204.753906" xlink:href="#DejaVuSans-109"/>
      <use x="302.166016" xlink:href="#DejaVuSans-101"/>
      <use x="363.689453" xlink:href="#DejaVuSans-116"/>
      <use x="402.898438" xlink:href="#DejaVuSans-104"/>
      <use x="466.277344" xlink:href="#DejaVuSans-101"/>
      <use x="527.800781" xlink:href="#DejaVuSans-117"/>
      <use x="591.179688" xlink:href="#DejaVuSans-115"/>
      <use x="643.279297" xlink:href="#DejaVuSans-45"/>
      <use x="679.363281" xlink:href="#DejaVuSans-54"/>
      <use x="742.986328" xlink:href="#DejaVuSans-102"/>
      <use x="778.191406" xlink:href="#DejaVuSans-100"/>
      <use x="841.667969" xlink:href="#DejaVuSans-55"/>
      <use x="905.291016" xlink:href="#DejaVuSans-55"/>
      <use x="968.914062" xlink:href="#DejaVuSans-98"/>
      <use x="1032.390625" xlink:href="#DejaVuSans-55"/>
      <use x="1096.013672" xlink:href="#DejaVuSans-56"/>
      <use x="1159.636719" xlink:href="#DejaVuSans-55"/>
      <use x="1223.259766" xlink:href="#DejaVuSans-54"/>
      <use x="1286.882812" xlink:href="#DejaVuSans-44"/>
      <use x="1318.669922" xlink:href="#DejaVuSans-32"/>
      <use x="1350.457031" xlink:href="#DejaVuSans-105"/>
      <use x="1378.240234" xlink:href="#DejaVuSans-115"/>
      <use x="1430.339844" xlink:href="#DejaVuSans-116"/>
      <use x="1469.548828" xlink:href="#DejaVuSans-105"/>
      <use x="1497.332031" xlink:href="#DejaVuSans-111"/>
      <use x="1558.529297" xlink:href="#DejaVuSans-45"/>
      <use x="1594.613281" xlink:href="#DejaVuSans-112"/>
      <use x="1658.089844" xlink:href="#DejaVuSans-114"/>
      <use x="1699.171875" xlink:href="#DejaVuSans-111"/>
      <use x="1760.306641" xlink:href="#DejaVuSans-120"/>
      <use x="1819.486328" xlink:href="#DejaVuSans-121"/>
      <use x="1878.666016" xlink:href="#DejaVuSans-41"/>
     </g>
    </g>
   </g>
  </g>
 </g>
 <defs>
  <clipPath id="p0204b78bf4">
   <rect height="443.52" width="892.8" x="144" y="69.12"/>
  </clipPath>
 </defs>
</svg>
